<svg width="14" height="14" viewBox="0 0 14 14" fill="none" xmlns="http://www.w3.org/2000/svg">
<g clip-path="url(#clip0_6_1339)">
<path d="M11.7473 14C11.5315 13.9994 11.318 13.9561 11.119 13.8725C10.9201 13.7888 10.7397 13.6667 10.5882 13.5129L7.00072 9.94642L3.41322 13.5153C3.18282 13.749 2.88734 13.9079 2.5653 13.9713C2.24326 14.0347 1.90959 13.9995 1.60781 13.8705C1.30302 13.7479 1.04229 13.5363 0.859657 13.2632C0.677023 12.9901 0.580975 12.6683 0.584056 12.3398V2.91667C0.584056 2.14312 0.891347 1.40125 1.43833 0.854272C1.98531 0.307291 2.72717 0 3.50072 0L10.5007 0C10.8837 0 11.263 0.0754418 11.6169 0.222018C11.9708 0.368594 12.2923 0.583434 12.5631 0.854272C12.834 1.12511 13.0488 1.44664 13.1954 1.80051C13.342 2.15437 13.4174 2.53364 13.4174 2.91667V12.3398C13.4207 12.6681 13.325 12.9897 13.1428 13.2627C12.9606 13.5357 12.7003 13.7475 12.396 13.8705C12.1905 13.9564 11.97 14.0005 11.7473 14ZM3.50072 1.16667C3.03659 1.16667 2.59148 1.35104 2.26329 1.67923C1.9351 2.00742 1.75072 2.45254 1.75072 2.91667V12.3398C1.75051 12.437 1.77911 12.5321 1.83292 12.6131C1.88672 12.694 1.9633 12.7572 2.053 12.7947C2.1427 12.8321 2.24149 12.8422 2.33688 12.8235C2.43228 12.8048 2.52 12.7583 2.58897 12.6898L6.59239 8.71092C6.70169 8.60227 6.84953 8.54129 7.00364 8.54129C7.15775 8.54129 7.3056 8.60227 7.41489 8.71092L11.4136 12.6887C11.4826 12.7572 11.5703 12.8037 11.6657 12.8223C11.7611 12.841 11.8599 12.831 11.9496 12.7935C12.0393 12.7561 12.1159 12.6929 12.1697 12.6119C12.2235 12.531 12.2521 12.4359 12.2519 12.3387V2.91667C12.2519 2.45254 12.0675 2.00742 11.7393 1.67923C11.4111 1.35104 10.966 1.16667 10.5019 1.16667H3.50072Z" fill="white"/>
</g>
<defs>
<clipPath id="clip0_6_1339">
<rect width="14" height="14" fill="white"/>
</clipPath>
</defs>
</svg>
