<svg width="14" height="14" viewBox="0 0 14 14" fill="none" xmlns="http://www.w3.org/2000/svg">
<g clip-path="url(#clip0_6_1348)">
<path d="M5.41851 7.62204C4.06693 7.88221 3.39726 9.38721 3.10676 10.3252C3.07937 10.4126 3.07295 10.5053 3.08804 10.5957C3.10313 10.686 3.13929 10.7716 3.1936 10.8454C3.2479 10.9192 3.31883 10.9791 3.40063 11.0204C3.48243 11.0617 3.57281 11.0831 3.66443 11.083H5.83385C6.07716 11.083 6.31781 11.0323 6.54043 10.9341C6.76305 10.8359 6.96275 10.6924 7.12677 10.5126C7.29079 10.3329 7.41553 10.121 7.49303 9.89033C7.57052 9.65969 7.59907 9.41542 7.57685 9.17312C7.54584 8.92555 7.46405 8.68705 7.3366 8.47255C7.20915 8.25805 7.03879 8.07218 6.83617 7.92657C6.63356 7.78097 6.40307 7.67876 6.15912 7.62636C5.91518 7.57396 5.66305 7.57249 5.41851 7.62204Z" fill="white"/>
<path d="M13.4167 5.23775C13.262 5.23775 13.1136 5.29921 13.0042 5.40861C12.8948 5.518 12.8333 5.66637 12.8333 5.82108V8.75H10.5C10.0359 8.75 9.59075 8.93437 9.26256 9.26256C8.93437 9.59075 8.75 10.0359 8.75 10.5V12.8333H2.91667C2.45254 12.8333 2.00742 12.649 1.67923 12.3208C1.35104 11.9926 1.16667 11.5475 1.16667 11.0833V2.91667C1.16667 2.45254 1.35104 2.00742 1.67923 1.67923C2.00742 1.35104 2.45254 1.16667 2.91667 1.16667H9.35783C9.51254 1.16667 9.66092 1.10521 9.77031 0.995812C9.87971 0.886416 9.94117 0.738043 9.94117 0.583333C9.94117 0.428624 9.87971 0.280251 9.77031 0.170854C9.66092 0.0614582 9.51254 0 9.35783 0L2.91667 0C2.1434 0.00092625 1.40208 0.308515 0.855295 0.855295C0.308515 1.40208 0.00092625 2.1434 0 2.91667L0 11.0833C0.00092625 11.8566 0.308515 12.5979 0.855295 13.1447C1.40208 13.6915 2.1434 13.9991 2.91667 14H9.53342C9.91653 14.0011 10.2961 13.9262 10.65 13.7796C11.004 13.633 11.3253 13.4176 11.5955 13.146L13.146 11.5955C13.4176 11.3253 13.633 11.004 13.7796 10.65C13.9262 10.2961 14.0011 9.91653 14 9.53342V5.82108C14 5.66637 13.9385 5.518 13.8291 5.40861C13.7198 5.29921 13.5714 5.23775 13.4167 5.23775ZM10.7707 12.3212C10.5354 12.5538 10.2395 12.7155 9.91667 12.7878V10.5C9.91667 10.3453 9.97812 10.1969 10.0875 10.0875C10.1969 9.97812 10.3453 9.91667 10.5 9.91667H12.7896C12.7172 10.2395 12.5555 10.5354 12.3229 10.7707L10.7707 12.3212Z" fill="white"/>
<path d="M8.49739 8.26591C8.38203 8.26588 8.26928 8.23166 8.17337 8.16756C8.07747 8.10346 8.00272 8.01236 7.95858 7.90579C7.91444 7.79921 7.90288 7.68194 7.92538 7.56881C7.94788 7.45567 8.00342 7.35174 8.08497 7.27016L12.6659 2.68924C12.7171 2.63815 12.7577 2.57745 12.7854 2.51064C12.8131 2.44383 12.8274 2.3722 12.8274 2.29987C12.8274 2.22753 12.8131 2.15591 12.7854 2.08909C12.7577 2.02228 12.7171 1.96159 12.6659 1.91049C12.6138 1.85634 12.5507 1.814 12.4809 1.78633C12.411 1.75866 12.3361 1.74629 12.2611 1.75007C12.1861 1.7517 12.1122 1.76882 12.0442 1.80034C11.9761 1.83186 11.9153 1.87711 11.8656 1.93324L7.43222 6.83732C7.32849 6.95212 7.1834 7.021 7.02888 7.02883C6.87436 7.03665 6.72306 6.98277 6.60826 6.87903C6.49347 6.7753 6.42458 6.63021 6.41676 6.47569C6.40894 6.32117 6.46282 6.16987 6.56656 6.05507L10.9999 1.15507C11.1554 0.981513 11.3445 0.841345 11.5558 0.743077C11.767 0.644808 11.9961 0.590486 12.229 0.583408C12.4622 0.578409 12.6941 0.620344 12.9109 0.706724C13.1276 0.793103 13.3248 0.922165 13.4907 1.08624C13.8123 1.40852 13.9929 1.84519 13.9929 2.30045C13.9929 2.75571 13.8123 3.19238 13.4907 3.51466L8.90981 8.09557C8.85574 8.14982 8.79145 8.19281 8.72066 8.22205C8.64987 8.25128 8.57398 8.26619 8.49739 8.26591Z" fill="white"/>
</g>
<defs>
<clipPath id="clip0_6_1348">
<rect width="14" height="14" fill="white"/>
</clipPath>
</defs>
</svg>
