<svg width="24" height="25" viewBox="0 0 24 25" fill="none" xmlns="http://www.w3.org/2000/svg">
<path d="M15.3993 10.3798L10.8093 5.78982C10.622 5.60356 10.3685 5.49902 10.1043 5.49902C9.84013 5.49902 9.58668 5.60356 9.39931 5.78982C9.30559 5.88278 9.23119 5.99338 9.18042 6.11524C9.12965 6.2371 9.10352 6.3678 9.10352 6.49982C9.10352 6.63183 9.12965 6.76253 9.18042 6.88439C9.23119 7.00625 9.30559 7.11685 9.39931 7.20982L13.9993 11.7898C14.093 11.8828 14.1674 11.9934 14.2182 12.1152C14.269 12.2371 14.2951 12.3678 14.2951 12.4998C14.2951 12.6318 14.269 12.7625 14.2182 12.8844C14.1674 13.0063 14.093 13.1169 13.9993 13.2098L9.39931 17.7898C9.21101 17.9768 9.1047 18.2309 9.10376 18.4963C9.10282 18.7616 9.20734 19.0165 9.39431 19.2048C9.58129 19.3931 9.83541 19.4994 10.1008 19.5004C10.3661 19.5013 10.621 19.3968 10.8093 19.2098L15.3993 14.6198C15.9611 14.0573 16.2767 13.2948 16.2767 12.4998C16.2767 11.7048 15.9611 10.9423 15.3993 10.3798Z" fill="white"/>
</svg>
