<svg width="19" height="19" viewBox="0 0 19 19" fill="none" xmlns="http://www.w3.org/2000/svg">
<g id="Iconly/Light-Outline/Home">
<g id="Home">
<mask id="mask0_80_2775" style="mask-type:luminance" maskUnits="userSpaceOnUse" x="2" y="1" width="16" height="17">
<path id="Clip 2" fill-rule="evenodd" clip-rule="evenodd" d="M2 1.25H17.3748V17.3787H2V1.25Z" fill="white"/>
</mask>
<g mask="url(#mask0_80_2775)">
<path id="Fill 1" fill-rule="evenodd" clip-rule="evenodd" d="M10.7878 11.9684C11.6908 11.9684 12.4257 12.6982 12.4257 13.5952V15.9022C12.4257 16.0949 12.5802 16.2494 12.7782 16.2539H14.2078C15.3343 16.2539 16.25 15.3494 16.25 14.2379V7.69494C16.2448 7.31244 16.0625 6.95244 15.7498 6.71319L10.805 2.76969C10.1412 2.24394 9.21275 2.24394 8.54675 2.77119L3.63575 6.71169C3.311 6.95844 3.12875 7.31844 3.125 7.70769V14.2379C3.125 15.3494 4.04075 16.2539 5.16725 16.2539H6.61025C6.8135 16.2539 6.9785 16.0927 6.9785 15.8947C6.9785 15.8512 6.98375 15.8077 6.99275 15.7664V13.5952C6.99275 12.7034 7.72325 11.9744 8.6195 11.9684H10.7878ZM14.2078 17.3789H12.7647C11.9382 17.3594 11.3007 16.7107 11.3007 15.9022V13.5952C11.3007 13.3184 11.0705 13.0934 10.7878 13.0934H8.62325C8.3465 13.0949 8.11775 13.3207 8.11775 13.5952V15.8947C8.11775 15.9509 8.11025 16.0049 8.0945 16.0559C8.0135 16.7984 7.379 17.3789 6.61025 17.3789H5.16725C3.4205 17.3789 2 15.9697 2 14.2379V7.70244C2.0075 6.95694 2.351 6.27444 2.94425 5.82519L7.8455 1.89144C8.92475 1.03644 10.4285 1.03644 11.5055 1.88994L16.442 5.82744C17.0218 6.26919 17.3652 6.95019 17.375 7.68669V14.2379C17.375 15.9697 15.9545 17.3789 14.2078 17.3789Z" fill="white"/>
</g>
</g>
</g>
</svg>
