<svg width="10" height="16" viewBox="0 0 10 16" fill="none" xmlns="http://www.w3.org/2000/svg">
<g clip-path="url(#clip0_30_2494)">
<path d="M9.58333 7.33301H0.416667C0.186548 7.33301 0 7.63149 0 7.99968C0 8.36787 0.186548 8.66635 0.416667 8.66635H9.58333C9.81345 8.66635 10 8.36787 10 7.99968C10 7.63149 9.81345 7.33301 9.58333 7.33301Z" fill="#A9ADB2"/>
<path d="M9.58333 2.66699H0.416667C0.186548 2.66699 0 2.96547 0 3.33366C0 3.70185 0.186548 4.00032 0.416667 4.00032H9.58333C9.81345 4.00032 10 3.70185 10 3.33366C10 2.96547 9.81345 2.66699 9.58333 2.66699Z" fill="#A9ADB2"/>
<path d="M9.58333 12H0.416667C0.186548 12 0 12.2985 0 12.6667C0 13.0349 0.186548 13.3333 0.416667 13.3333H9.58333C9.81345 13.3333 10 13.0349 10 12.6667C10 12.2985 9.81345 12 9.58333 12Z" fill="#A9ADB2"/>
</g>
<defs>
<clipPath id="clip0_30_2494">
<rect width="10" height="16" fill="white"/>
</clipPath>
</defs>
</svg>
