<svg width="24" height="25" viewBox="0 0 24 25" fill="none" xmlns="http://www.w3.org/2000/svg">
<path d="M12.2496 3.52344C8.83222 3.52344 6.06185 6.29381 6.06185 9.71122V14.2918L4.44922 15.9264V18.6306H20.05V15.9264L18.4374 14.2918V9.71122" stroke="white" stroke-width="1.5"/>
<path d="M15.4173 18.6309V18.8569C15.4173 20.6058 13.9995 22.0236 12.2506 22.0236C10.5017 22.0236 9.08398 20.6058 9.08398 18.8569V18.6309" stroke="white" stroke-width="1.5"/>
<path d="M16.5889 7.94239C17.8838 7.94239 18.9336 6.89262 18.9336 5.59766C18.9336 4.3027 17.8838 3.25293 16.5889 3.25293C15.2939 3.25293 14.2441 4.3027 14.2441 5.59766C14.2441 6.89262 15.2939 7.94239 16.5889 7.94239Z" stroke="white" stroke-width="1.5"/>
</svg>
