<svg width="25" height="24" viewBox="0 0 25 24" fill="none" xmlns="http://www.w3.org/2000/svg">
<path d="M11.7786 14.25C11.5873 14.25 11.4038 14.329 11.2685 14.4697C11.1332 14.6103 11.0572 14.8011 11.0572 15V17.25C11.0572 17.8467 10.8292 18.419 10.4234 18.841C10.0175 19.2629 9.46704 19.5 8.89307 19.5H7.10693C6.53296 19.5 5.98249 19.2629 5.57664 18.841C5.17078 18.419 4.94277 17.8467 4.94277 17.25V6.75C4.94277 6.15326 5.17078 5.58097 5.57664 5.15901C5.98249 4.73705 6.53296 4.5 7.10693 4.5H8.89307C9.46704 4.5 10.0175 4.73705 10.4234 5.15901C10.8292 5.58097 11.0572 6.15326 11.0572 6.75V9C11.0572 9.19891 11.1332 9.38968 11.2685 9.53033C11.4038 9.67098 11.5873 9.75 11.7786 9.75C11.9699 9.75 12.1534 9.67098 12.2887 9.53033C12.424 9.38968 12.5 9.19891 12.5 9V6.75C12.4989 5.7558 12.1185 4.80267 11.4423 4.09966C10.7661 3.39666 9.84934 3.00119 8.89307 3H7.10693C6.15066 3.00119 5.23389 3.39666 4.55771 4.09966C3.88153 4.80267 3.50115 5.7558 3.5 6.75L3.5 17.25C3.50115 18.2442 3.88153 19.1973 4.55771 19.9003C5.23389 20.6033 6.15066 20.9988 7.10693 21H8.89307C9.84934 20.9988 10.7661 20.6033 11.4423 19.9003C12.1185 19.1973 12.4989 18.2442 12.5 17.25V15C12.5 14.8011 12.424 14.6103 12.2887 14.4697C12.1534 14.329 11.9699 14.25 11.7786 14.25Z" fill="#ED4B9E"/>
<path d="M18.8447 10.4877L15.4195 7.21768C15.3506 7.14958 15.2681 7.09526 15.177 7.05789C15.0859 7.02052 14.9879 7.00085 14.8887 7.00003C14.7896 6.9992 14.6912 7.01725 14.5994 7.0531C14.5076 7.08895 14.4242 7.14189 14.3541 7.20884C14.284 7.27579 14.2285 7.3554 14.191 7.44303C14.1534 7.53066 14.1345 7.62455 14.1354 7.71923C14.1362 7.81391 14.1568 7.90747 14.196 7.99446C14.2351 8.08146 14.292 8.16014 14.3634 8.22591L17.5466 11.2656L8.24689 11.287C8.0488 11.287 7.85883 11.3621 7.71876 11.4958C7.57869 11.6295 7.5 11.8109 7.5 12C7.5 12.1891 7.57869 12.3705 7.71876 12.5042C7.85883 12.6379 8.0488 12.713 8.24689 12.713L11.9188 12.702L17.5907 12.6909L14.3619 15.7741C14.2905 15.8399 14.2336 15.9185 14.1945 16.0055C14.1553 16.0925 14.1347 16.1861 14.1339 16.2808C14.133 16.3754 14.1519 16.4693 14.1895 16.557C14.227 16.6446 14.2825 16.7242 14.3526 16.7912C14.4227 16.8581 14.5061 16.911 14.5979 16.9469C14.6897 16.9828 14.7881 17.0008 14.8872 17C14.9864 16.9991 15.0844 16.9795 15.1755 16.9421C15.2667 16.9047 15.3491 16.8504 15.418 16.7823L18.8432 13.5123C19.2635 13.1114 19.4997 12.5675 19.5 12.0003C19.5003 11.4331 19.2646 10.889 18.8447 10.4877Z" fill="#ED4B9E"/>
</svg>
