<svg width="19" height="18" viewBox="0 0 19 18" fill="none" xmlns="http://www.w3.org/2000/svg">
<g clip-path="url(#clip0_6_1114)">
<path d="M3.12109 17.2901V14.1016H6.30967" stroke="white" stroke-width="1.2" stroke-linecap="round" stroke-linejoin="round"/>
<path d="M17.6492 7.47694C17.9875 9.28202 17.717 11.1483 16.88 12.7831C16.0431 14.4178 14.6871 15.7284 13.0248 16.5092C11.3626 17.29 9.48812 17.4969 7.6956 17.0973C5.90308 16.6978 4.29393 15.7144 3.12066 14.3015M1.34894 10.5241C1.01063 8.71899 1.28118 6.85267 2.11813 5.21795C2.95508 3.58323 4.31107 2.27264 5.97333 1.49182C7.63559 0.711001 9.51005 0.504142 11.3026 0.903703C13.0951 1.30326 14.7042 2.28663 15.8775 3.69951" stroke="white" stroke-width="1.2" stroke-linecap="round" stroke-linejoin="round"/>
<path d="M15.877 0.710938V3.89951H12.6884M5.75839 9.43065C5.3071 9.35222 5.3071 8.70422 5.75839 8.6258C6.55744 8.48673 7.29697 8.11285 7.88271 7.55185C8.46845 6.99084 8.87385 6.26811 9.04724 5.47579L9.07424 5.35108C9.17196 4.90494 9.8071 4.90237 9.90867 5.34722L9.9421 5.49251C10.1222 6.28123 10.5312 6.99918 11.118 7.55618C11.7047 8.11318 12.4429 8.4844 13.24 8.62322C13.6938 8.70165 13.6938 9.35351 13.24 9.43322C12.4431 9.57196 11.705 9.94299 11.1183 10.4997C10.5316 11.0565 10.1224 11.7742 9.9421 12.5627L9.90867 12.7067C9.8071 13.1515 9.17196 13.1489 9.07424 12.7028L9.04853 12.5794C8.87497 11.7867 8.46918 11.0637 7.88295 10.5027C7.29671 9.94163 6.55662 9.56797 5.7571 9.42937L5.75839 9.43065Z" stroke="white" stroke-width="1.2" stroke-linecap="round" stroke-linejoin="round"/>
</g>
<defs>
<clipPath id="clip0_6_1114">
<rect width="18" height="18" fill="white" transform="translate(0.5)"/>
</clipPath>
</defs>
</svg>
