<svg width="14" height="14" viewBox="0 0 14 14" fill="none" xmlns="http://www.w3.org/2000/svg">
<g clip-path="url(#clip0_30_2491)">
<path d="M13.8289 9.52236C13.7195 9.413 13.5712 9.35156 13.4165 9.35156C13.2618 9.35156 13.1135 9.413 13.0041 9.52236L9.72167 12.8054L8.15367 11.2578C8.04537 11.1468 7.89741 11.0833 7.74234 11.0814C7.58727 11.0795 7.4378 11.1393 7.32679 11.2476C7.21579 11.3559 7.15235 11.5038 7.15044 11.6589C7.14852 11.814 7.20829 11.9634 7.31658 12.0744L8.91725 13.6494C9.01765 13.7577 9.13892 13.8445 9.27376 13.9046C9.40859 13.9648 9.55421 13.997 9.70183 13.9994H9.72108C9.86578 13.9999 10.0091 13.9716 10.1428 13.9163C10.2765 13.8609 10.3979 13.7795 10.4998 13.6769L13.8289 10.3472C13.9383 10.2378 13.9997 10.0895 13.9997 9.93477C13.9997 9.78009 13.9383 9.63175 13.8289 9.52236Z" fill="#A9ADB2"/>
<path d="M6.46917 12.8091C5.34277 12.7061 4.2706 12.278 3.38317 11.5767C2.49575 10.8754 1.83135 9.93117 1.47086 8.85907C1.11037 7.78697 1.06935 6.63319 1.35278 5.53819C1.63622 4.44319 2.23188 3.45421 3.06726 2.69165C3.90264 1.92909 4.94169 1.42584 6.05793 1.24318C7.17417 1.06051 8.31944 1.2063 9.35431 1.6628C10.3892 2.1193 11.269 2.86682 11.8867 3.81436C12.5044 4.76189 12.8333 5.86857 12.8333 6.99965C12.8333 7.17873 12.8246 7.35607 12.8094 7.53107C12.8023 7.60755 12.8103 7.68469 12.8331 7.75806C12.8558 7.83143 12.8928 7.89958 12.942 7.9586C12.9912 8.01762 13.0515 8.06636 13.1195 8.102C13.1876 8.13765 13.262 8.15951 13.3385 8.16632C13.415 8.17401 13.4922 8.16635 13.5656 8.14379C13.6391 8.12123 13.7073 8.08422 13.7663 8.03493C13.8252 7.98564 13.8737 7.92508 13.909 7.85678C13.9442 7.78849 13.9654 7.71385 13.9714 7.63723C13.9901 7.42548 14 7.21373 14 6.99965C13.9999 5.6423 13.6052 4.31424 12.864 3.17718C12.1227 2.04011 11.0668 1.14309 9.8249 0.595322C8.58298 0.047553 7.2086 -0.12733 5.86908 0.0919642C4.52956 0.311259 3.28269 0.91527 2.28027 1.83046C1.27786 2.74565 0.563149 3.93254 0.223155 5.24662C-0.11684 6.5607 -0.0674495 7.94529 0.365312 9.2318C0.798074 10.5183 1.59554 11.6513 2.66061 12.4927C3.72569 13.3341 5.01243 13.8478 6.36417 13.9711H6.41725C6.57196 13.978 6.72307 13.9231 6.83733 13.8186C6.9516 13.714 7.01966 13.5684 7.02654 13.4137C7.03343 13.259 6.97857 13.1079 6.87404 12.9936C6.76951 12.8793 6.62388 12.8113 6.46917 12.8044V12.8091Z" fill="#A9ADB2"/>
<path d="M6.41732 4.08333V6.7585L4.83824 8.33758C4.78253 8.39139 4.73809 8.45576 4.70751 8.52692C4.67694 8.59809 4.66085 8.67464 4.66018 8.75209C4.65951 8.82955 4.67426 8.90636 4.7036 8.97805C4.73293 9.04974 4.77624 9.11487 4.83101 9.16964C4.88578 9.22441 4.95091 9.26772 5.0226 9.29705C5.09429 9.32639 5.1711 9.34114 5.24856 9.34047C5.32601 9.3398 5.40256 9.32371 5.47372 9.29313C5.54489 9.26256 5.60926 9.21812 5.66307 9.16241L7.41307 7.41241C7.52247 7.30304 7.58395 7.15469 7.58398 7V4.08333C7.58398 3.92862 7.52252 3.78025 7.41313 3.67085C7.30373 3.56146 7.15536 3.5 7.00065 3.5C6.84594 3.5 6.69757 3.56146 6.58817 3.67085C6.47878 3.78025 6.41732 3.92862 6.41732 4.08333Z" fill="#A9ADB2"/>
</g>
<defs>
<clipPath id="clip0_30_2491">
<rect width="14" height="14" fill="white"/>
</clipPath>
</defs>
</svg>
