<svg width="14" height="15" viewBox="0 0 14 15" fill="none" xmlns="http://www.w3.org/2000/svg">
<g clip-path="url(#clip0_6_878)">
<path d="M7 0.5C5.27654 0.501229 3.61441 1.1397 2.33333 2.29258V1.08333C2.33333 0.928624 2.27188 0.780251 2.16248 0.670854C2.05308 0.561458 1.90471 0.5 1.75 0.5C1.59529 0.5 1.44692 0.561458 1.33752 0.670854C1.22812 0.780251 1.16667 0.928624 1.16667 1.08333V2.83333C1.16667 3.29746 1.35104 3.74258 1.67923 4.07077C2.00742 4.39896 2.45254 4.58333 2.91667 4.58333H4.66667C4.82138 4.58333 4.96975 4.52188 5.07915 4.41248C5.18854 4.30308 5.25 4.15471 5.25 4C5.25 3.84529 5.18854 3.69692 5.07915 3.58752C4.96975 3.47813 4.82138 3.41667 4.66667 3.41667H2.91667C2.897 3.41375 2.87752 3.40966 2.85833 3.40442C3.80889 2.44707 5.06224 1.84929 6.40445 1.71314C7.74667 1.57698 9.09453 1.91088 10.218 2.65784C11.3414 3.40481 12.1708 4.51852 12.5645 5.80889C12.9583 7.09925 12.892 8.48628 12.3769 9.7332C11.8619 10.9801 10.93 12.0096 9.74047 12.646C8.5509 13.2824 7.17733 13.4862 5.85423 13.2226C4.53112 12.9591 3.34051 12.2444 2.48562 11.2008C1.63072 10.1571 1.16455 8.8491 1.16667 7.5C1.16667 7.34529 1.10521 7.19692 0.995812 7.08752C0.886416 6.97813 0.738043 6.91667 0.583333 6.91667C0.428624 6.91667 0.280251 6.97813 0.170854 7.08752C0.0614582 7.19692 0 7.34529 0 7.5C0 8.88447 0.410543 10.2378 1.17971 11.389C1.94888 12.5401 3.04213 13.4373 4.32122 13.9672C5.6003 14.497 7.00777 14.6356 8.36563 14.3655C9.7235 14.0954 10.9708 13.4287 11.9497 12.4497C12.9287 11.4708 13.5954 10.2235 13.8655 8.86563C14.1356 7.50777 13.997 6.1003 13.4672 4.82122C12.9373 3.54213 12.0401 2.44888 10.889 1.67971C9.73785 0.910543 8.38447 0.5 7 0.5V0.5Z" fill="white"/>
<path d="M6.99935 4C6.84464 4 6.69627 4.06146 6.58687 4.17085C6.47747 4.28025 6.41602 4.42862 6.41602 4.58333V7.5C6.41605 7.6547 6.47753 7.80305 6.58693 7.91242L8.33693 9.66242C8.44695 9.76868 8.5943 9.82747 8.74725 9.82614C8.9002 9.82481 9.0465 9.76347 9.15466 9.65531C9.26281 9.54716 9.32416 9.40085 9.32549 9.2479C9.32682 9.09495 9.26802 8.9476 9.16176 8.83758L7.58268 7.2585V4.58333C7.58268 4.42862 7.52122 4.28025 7.41183 4.17085C7.30243 4.06146 7.15406 4 6.99935 4Z" fill="white"/>
</g>
<defs>
<clipPath id="clip0_6_878">
<rect width="14" height="14" fill="white" transform="translate(0 0.5)"/>
</clipPath>
</defs>
</svg>
