<svg width="18" height="18" viewBox="0 0 18 18" fill="none" xmlns="http://www.w3.org/2000/svg">
<g id="Iconly/Light-Outline/Voice">
<g id="Voice">
<path id="Fill 1" fill-rule="evenodd" clip-rule="evenodd" d="M8.8125 16.8747C8.502 16.8747 8.25 16.6227 8.25 16.3122V13.9414C8.25 13.6309 8.502 13.3789 8.8125 13.3789C9.123 13.3789 9.375 13.6309 9.375 13.9414V16.3122C9.375 16.6227 9.123 16.8747 8.8125 16.8747Z" fill="white"/>
<path id="Fill 3" fill-rule="evenodd" clip-rule="evenodd" d="M8.81212 1.875C7.44263 1.875 6.32812 2.9955 6.32812 4.37325V7.88925C6.32812 9.2655 7.44263 10.3868 8.81212 10.3868C10.1816 10.3868 11.2961 9.2655 11.2961 7.88925V4.37325C11.2961 2.9955 10.1816 1.875 8.81212 1.875ZM8.81212 11.5118C6.82237 11.5118 5.20312 9.8865 5.20312 7.88925V4.37325C5.20312 2.37525 6.82237 0.75 8.81212 0.75C10.8019 0.75 12.4211 2.37525 12.4211 4.37325V7.88925C12.4211 9.8865 10.8019 11.5118 8.81212 11.5118Z" fill="white"/>
<g id="Group 7">
<mask id="mask0_75_2607" style="mask-type:luminance" maskUnits="userSpaceOnUse" x="2" y="7" width="14" height="8">
<path id="Clip 6" fill-rule="evenodd" clip-rule="evenodd" d="M2.25 7.35156H15.3746V14.5051H2.25V7.35156Z" fill="white"/>
</mask>
<g mask="url(#mask0_75_2607)">
<path id="Fill 5" fill-rule="evenodd" clip-rule="evenodd" d="M8.8125 14.5051C5.19375 14.5051 2.25 11.5486 2.25 7.91406C2.25 7.60356 2.502 7.35156 2.8125 7.35156C3.12375 7.35156 3.375 7.60356 3.375 7.91406C3.375 10.9276 5.814 13.3801 8.8125 13.3801C11.811 13.3801 14.25 10.9276 14.25 7.91406C14.25 7.60356 14.502 7.35156 14.8125 7.35156C15.1237 7.35156 15.375 7.60356 15.375 7.91406C15.375 11.5486 12.4312 14.5051 8.8125 14.5051Z" fill="white"/>
</g>
</g>
</g>
</g>
</svg>
